<?xml version="1.0" standalone="no"?>
<!DOCTYPE svg PUBLIC "-//W3C//DTD SVG 20010904//EN"
 "http://www.w3.org/TR/2001/REC-SVG-20010904/DTD/svg10.dtd">
<svg version="1.0" xmlns="http://www.w3.org/2000/svg"
 width="2052.000000pt" height="2049.000000pt" viewBox="0 0 2052.000000 2049.000000"
 preserveAspectRatio="xMidYMid meet">

<g transform="translate(0.000000,2049.000000) scale(0.100000,-0.100000)"
fill="#000000" stroke="none">
<path d="M9855 19054 c-27 -2 -122 -8 -210 -14 -2563 -168 -4950 -1483 -6490
-3575 -848 -1151 -1408 -2510 -1614 -3915 -67 -455 -93 -824 -92 -1315 0 -817
97 -1548 308 -2320 276 -1015 759 -2015 1385 -2868 1935 -2639 5127 -3985
8368 -3527 2078 294 3991 1332 5383 2922 1187 1355 1927 3031 2127 4813 50
447 67 1095 41 1510 -130 2012 -873 3811 -2200 5325 -163 186 -536 562 -716
721 -808 716 -1672 1251 -2640 1634 -814 322 -1635 513 -2545 591 -173 14
-974 28 -1105 18z m618 -7119 c651 -85 1193 -530 1397 -1144 65 -194 90 -354
90 -566 0 -725 -479 -1376 -1178 -1599 -498 -160 -1026 -84 -1472 211 -156
104 -357 303 -459 457 -190 286 -278 568 -288 921 -5 155 -2 198 17 310 57
341 209 646 442 890 203 213 425 355 695 445 254 84 501 109 756 75z m-3028
-2362 c26 -121 117 -385 178 -518 217 -472 543 -869 957 -1165 719 -514 1628
-669 2482 -424 175 50 296 97 474 185 670 329 1192 914 1444 1620 34 92 58
176 100 337 l11 42 2264 0 c1245 0 2266 -3 2268 -7 6 -12 -19 -243 -48 -443
-153 -1044 -540 -2066 -1122 -2964 -413 -636 -971 -1254 -1568 -1736 -1084
-874 -2378 -1424 -3755 -1594 -351 -43 -492 -51 -925 -51 -416 0 -536 6 -875
46 -2009 233 -3851 1295 -5077 2927 -730 972 -1215 2125 -1397 3322 -28 183
-56 418 -56 468 l0 32 2314 0 2314 0 17 -77z"/>
</g>
</svg>
